# xmcd
#
# Track frame offsets:
#	150
#	47497
#	75768
#	147307
#	191935
#
# Disc length: 2854 seconds
#
# Revision: 1
# Processed by: cddbd v1.5.2PL0 Copyright (c) Steve Scherf et al.
# Submitted via: audiograbber 1.83.01
#
DISCID=390b2405
DTITLE=Grateful Dead - 78-01-07 Golden Hall, Community Concourse, San Diego CA
DYEAR=1900
DGENRE=
TTITLE0=Playing In The Band
TTITLE1=Drums
TTITLE2=Not Fade Away
TTITLE3=Around and Around
TTITLE4=One More Saturday Night
EXTD=
EXTT0=
EXTT1=
EXTT2=
EXTT3=
EXTT4=
PLAYORDER=
